<mxfile host="app.diagrams.net" modified="2022-01-12T20:44:33.495Z" agent="5.0 (X11; Linux x86_64) AppleWebKit/537.36 (KHTML, like Gecko) Chrome/97.0.4692.71 Safari/537.36" etag="l_ON8fV3I6F0lm993wJN" version="16.2.4" type="github">
  <diagram name="Page-1" id="e7e014a7-5840-1c2e-5031-d8a46d1fe8dd">
    <mxGraphModel dx="1422" dy="772" grid="1" gridSize="10" guides="1" tooltips="1" connect="1" arrows="1" fold="1" page="1" pageScale="1" pageWidth="1169" pageHeight="826" background="none" math="0" shadow="0">
      <root>
        <mxCell id="0" />
        <mxCell id="1" parent="0" />
        <mxCell id="2" value="Sacar" style="swimlane;whiteSpace=wrap" parent="1" vertex="1">
          <mxGeometry x="164.5" y="128" width="415.5" height="612" as="geometry" />
        </mxCell>
        <mxCell id="5" value="" style="ellipse;shape=startState;fillColor=#000000;strokeColor=#ff0000;" parent="2" vertex="1">
          <mxGeometry x="15.5" y="40" width="30" height="30" as="geometry" />
        </mxCell>
        <mxCell id="6" value="" style="edgeStyle=elbowEdgeStyle;elbow=horizontal;verticalAlign=bottom;endArrow=open;endSize=8;strokeColor=#FF0000;endFill=1;rounded=0;entryX=0;entryY=0.5;entryDx=0;entryDy=0;" parent="2" source="5" target="QPHRqF4BruMci5rntREo-41" edge="1">
          <mxGeometry x="100" y="40" as="geometry">
            <mxPoint x="115.5" y="77" as="targetPoint" />
          </mxGeometry>
        </mxCell>
        <mxCell id="9" value="" style="endArrow=open;strokeColor=#FF0000;endFill=1;rounded=0" parent="2" source="7" edge="1">
          <mxGeometry relative="1" as="geometry">
            <mxPoint x="123.25892857142867" y="220" as="targetPoint" />
          </mxGeometry>
        </mxCell>
        <mxCell id="11" value="" style="endArrow=open;strokeColor=#FF0000;endFill=1;rounded=0" parent="2" source="8" edge="1">
          <mxGeometry relative="1" as="geometry">
            <mxPoint x="115" y="325" as="targetPoint" />
          </mxGeometry>
        </mxCell>
        <mxCell id="QPHRqF4BruMci5rntREo-48" style="edgeStyle=orthogonalEdgeStyle;rounded=0;orthogonalLoop=1;jettySize=auto;html=1;" edge="1" parent="2" source="QPHRqF4BruMci5rntREo-41" target="QPHRqF4BruMci5rntREo-43">
          <mxGeometry relative="1" as="geometry" />
        </mxCell>
        <mxCell id="QPHRqF4BruMci5rntREo-41" value="Informar Conta" style="rounded=1;whiteSpace=wrap;html=1;" vertex="1" parent="2">
          <mxGeometry x="115.5" y="42" width="120" height="60" as="geometry" />
        </mxCell>
        <mxCell id="QPHRqF4BruMci5rntREo-49" style="edgeStyle=orthogonalEdgeStyle;rounded=0;orthogonalLoop=1;jettySize=auto;html=1;" edge="1" parent="2" source="QPHRqF4BruMci5rntREo-43" target="QPHRqF4BruMci5rntREo-46">
          <mxGeometry relative="1" as="geometry" />
        </mxCell>
        <mxCell id="QPHRqF4BruMci5rntREo-43" value="Vericiar Saldo" style="rounded=1;whiteSpace=wrap;html=1;" vertex="1" parent="2">
          <mxGeometry x="115.5" y="142" width="120" height="60" as="geometry" />
        </mxCell>
        <mxCell id="QPHRqF4BruMci5rntREo-55" style="edgeStyle=orthogonalEdgeStyle;rounded=0;orthogonalLoop=1;jettySize=auto;html=1;" edge="1" parent="2" source="QPHRqF4BruMci5rntREo-44" target="QPHRqF4BruMci5rntREo-54">
          <mxGeometry relative="1" as="geometry" />
        </mxCell>
        <mxCell id="QPHRqF4BruMci5rntREo-44" value="Solciitar Ccodigo de confirmacao" style="rounded=1;whiteSpace=wrap;html=1;" vertex="1" parent="2">
          <mxGeometry x="105.5" y="442" width="120" height="60" as="geometry" />
        </mxCell>
        <mxCell id="QPHRqF4BruMci5rntREo-51" style="edgeStyle=orthogonalEdgeStyle;rounded=0;orthogonalLoop=1;jettySize=auto;html=1;entryX=0.5;entryY=0;entryDx=0;entryDy=0;" edge="1" parent="2" source="QPHRqF4BruMci5rntREo-45" target="QPHRqF4BruMci5rntREo-44">
          <mxGeometry relative="1" as="geometry" />
        </mxCell>
        <mxCell id="QPHRqF4BruMci5rntREo-53" style="edgeStyle=orthogonalEdgeStyle;rounded=0;orthogonalLoop=1;jettySize=auto;html=1;entryX=0;entryY=0.5;entryDx=0;entryDy=0;" edge="1" parent="2" source="QPHRqF4BruMci5rntREo-45" target="QPHRqF4BruMci5rntREo-52">
          <mxGeometry relative="1" as="geometry" />
        </mxCell>
        <mxCell id="QPHRqF4BruMci5rntREo-45" value="Saldo dIsponivel" style="rhombus;whiteSpace=wrap;html=1;" vertex="1" parent="2">
          <mxGeometry x="125.5" y="322" width="80" height="80" as="geometry" />
        </mxCell>
        <mxCell id="QPHRqF4BruMci5rntREo-50" style="edgeStyle=orthogonalEdgeStyle;rounded=0;orthogonalLoop=1;jettySize=auto;html=1;" edge="1" parent="2" source="QPHRqF4BruMci5rntREo-46" target="QPHRqF4BruMci5rntREo-45">
          <mxGeometry relative="1" as="geometry" />
        </mxCell>
        <mxCell id="QPHRqF4BruMci5rntREo-46" value="Solcitar Valor" style="rounded=1;whiteSpace=wrap;html=1;" vertex="1" parent="2">
          <mxGeometry x="115.5" y="242" width="120" height="60" as="geometry" />
        </mxCell>
        <mxCell id="QPHRqF4BruMci5rntREo-52" value="" style="ellipse;html=1;shape=endState;fillColor=#000000;strokeColor=#ff0000;" vertex="1" parent="2">
          <mxGeometry x="325.5" y="347" width="30" height="30" as="geometry" />
        </mxCell>
        <mxCell id="QPHRqF4BruMci5rntREo-58" style="edgeStyle=orthogonalEdgeStyle;rounded=0;orthogonalLoop=1;jettySize=auto;html=1;entryX=0;entryY=0.5;entryDx=0;entryDy=0;" edge="1" parent="2" source="QPHRqF4BruMci5rntREo-54" target="QPHRqF4BruMci5rntREo-57">
          <mxGeometry relative="1" as="geometry" />
        </mxCell>
        <mxCell id="QPHRqF4BruMci5rntREo-54" value="Emitir dinheiro" style="rounded=1;whiteSpace=wrap;html=1;" vertex="1" parent="2">
          <mxGeometry x="105.5" y="532" width="120" height="60" as="geometry" />
        </mxCell>
        <mxCell id="QPHRqF4BruMci5rntREo-57" value="" style="ellipse;html=1;shape=endState;fillColor=#000000;strokeColor=#ff0000;" vertex="1" parent="2">
          <mxGeometry x="325.5" y="547" width="30" height="30" as="geometry" />
        </mxCell>
      </root>
    </mxGraphModel>
  </diagram>
</mxfile>
